<svg viewBox="0 0 100 100" version="1.1" xmlns="http://www.w3.org/2000/svg"> 

  <defs>

    <symbol id="play">
        <path class="st0" d="M34.5,69.1C15.5,69.1,0,53.6,0,34.5S15.5,0,34.5,0s34.5,15.5,34.5,34.5S53.6,69.1,34.5,69.1z M34.5,4
            C17.7,4,4,17.7,4,34.5s13.7,30.5,30.5,30.5s30.5-13.7,30.5-30.5S51.4,4,34.5,4z"/>
    <symbol>


    <symbol id="more">
        <path class="st0" d="M34.5,69.1C15.5,69.1,0,53.6,0,34.5S15.5,0,34.5,0s34.5,15.5,34.5,34.5S53.6,69.1,34.5,69.1z M34.5,4
            C17.7,4,4,17.7,4,34.5s13.7,30.5,30.5,30.5s30.5-13.7,30.5-30.5S51.4,4,34.5,4z"/>
    <symbol>


    <symbol id="sync">
        <path class="st0" d="M34.5,69.1C15.5,69.1,0,53.6,0,34.5S15.5,0,34.5,0s34.5,15.5,34.5,34.5S53.6,69.1,34.5,69.1z M34.5,4
            C17.7,4,4,17.7,4,34.5s13.7,30.5,30.5,30.5s30.5-13.7,30.5-30.5S51.4,4,34.5,4z"/>
    <symbol>


    <symbol id="message">
        <path class="st0" d="M34.5,69.1C15.5,69.1,0,53.6,0,34.5S15.5,0,34.5,0s34.5,15.5,34.5,34.5S53.6,69.1,34.5,69.1z M34.5,4
            C17.7,4,4,17.7,4,34.5s13.7,30.5,30.5,30.5s30.5-13.7,30.5-30.5S51.4,4,34.5,4z"/>
    <symbol>


    <symbol id="more">
        <path class="st0" d="M34.5,69.1C15.5,69.1,0,53.6,0,34.5S15.5,0,34.5,0s34.5,15.5,34.5,34.5S53.6,69.1,34.5,69.1z M34.5,4
            C17.7,4,4,17.7,4,34.5s13.7,30.5,30.5,30.5s30.5-13.7,30.5-30.5S51.4,4,34.5,4z"/>
    <symbol>


    <symbol id="play">
        <path class="st0" d="M34.5,69.1C15.5,69.1,0,53.6,0,34.5S15.5,0,34.5,0s34.5,15.5,34.5,34.5S53.6,69.1,34.5,69.1z M34.5,4
            C17.7,4,4,17.7,4,34.5s13.7,30.5,30.5,30.5s30.5-13.7,30.5-30.5S51.4,4,34.5,4z"/>
    <symbol>


    <symbol id="#pause">
        <rect x="19.1" width="11.8" height="44.3"/>
        <rect width="11.8" height="44.3"/>
    <symbol>


    <symbol id="arrow">
        <path class="st0" d="M34.5,69.1C15.5,69.1,0,53.6,0,34.5S15.5,0,34.5,0s34.5,15.5,34.5,34.5S53.6,69.1,34.5,69.1z M34.5,4
            C17.7,4,4,17.7,4,34.5s13.7,30.5,30.5,30.5s30.5-13.7,30.5-30.5S51.4,4,34.5,4z"/>
    <symbol>


    <symbol id="arrow-small">
        <path class="st0" d="M34.5,69.1C15.5,69.1,0,53.6,0,34.5S15.5,0,34.5,0s34.5,15.5,34.5,34.5S53.6,69.1,34.5,69.1z M34.5,4
            C17.7,4,4,17.7,4,34.5s13.7,30.5,30.5,30.5s30.5-13.7,30.5-30.5S51.4,4,34.5,4z"/>
    <symbol>


  </defs>
</svg>


