<svg viewBox="0 0 100 100" version="1.1" xmlns="http://www.w3.org/2000/svg"> 

  <defs>


    <svg id="more" viewBox="0 0 21 21" >
        <path d="M10.5,21C4.7,21,0,16.3,0,10.5S4.7,0,10.5,0S21,4.7,21,10.5S16.3,21,10.5,21z M10.5,1C5.3,1,1,5.3,1,10.5S5.3,20,10.5,20
            s9.5-4.3,9.5-9.5S15.7,1,10.5,1z"/>
        <circle cx="10.5" cy="10.5" r="1.2"/>
        <circle cx="15.6" cy="10.5" r="1.2"/>
        <circle cx="5.4" cy="10.5" r="1.2"/>
    </svg>



    <svg id="folder"  viewBox="0 0 27 20.6" >
        <path d="M24.1,0H2.9C1.3,0,0,1.3,0,2.9v3.9v7.3v3.3c0,1.8,1.4,3.2,3.2,3.2h20.5c1.8,0,3.2-1.4,3.2-3.2v-3.3V6.8V2.9
            C27,1.3,25.7,0,24.1,0z M2.9,1h21.1C25.1,1,26,1.9,26,2.9v1.5c-0.6-0.6-1.4-0.9-2.2-0.9H3.2C2.4,3.6,1.6,3.9,1,4.5V2.9
            C1,1.9,1.9,1,2.9,1z M26,17.4c0,1.2-1,2.2-2.2,2.2H3.2c-1.2,0-2.2-1-2.2-2.2v-3.3V6.8c0-1.2,1-2.2,2.2-2.2h20.5c1.2,0,2.2,1,2.2,2.2
            v7.3V17.4z"/>
    </svg>





    <svg id="sync" viewBox="0 0 22 18.3">
        <path d="M14.5,13.8c-1.3,1-2.8,1.6-4.5,1.6c-3.9,0-7.2-3.2-7.2-7.2h1.4c0.3,0,0.5-0.4,0.3-0.6L2.6,5.1C2.5,4.9,2.2,4.9,2,5.1
            L0.1,7.5c-0.2,0.3,0,0.6,0.3,0.6h1.4c0,4.5,3.7,8.2,8.2,8.2c1.9,0,3.6-0.6,5.1-1.8c0.2-0.2,0.3-0.5,0.1-0.7
            C15,13.6,14.7,13.6,14.5,13.8z"/>
        <path d="M19.6,8.2h-1.5c0,0,0,0,0,0C18.2,3.7,14.5,0,10,0C8.3,0,6.6,0.5,5.3,1.5C5,1.7,5,2,5.1,2.2c0.2,0.2,0.5,0.3,0.7,0.1
            C7.1,1.5,8.5,1,10,1c3.9,0,7.2,3.2,7.2,7.2c0,0,0,0,0,0h-1.5c-0.3,0-0.5,0.4-0.3,0.6l1.9,2.4c0.2,0.2,0.5,0.2,0.6,0l1.9-2.4
            C20.1,8.6,19.9,8.2,19.6,8.2z"/>
    </svg>


    <svg id="review" viewBox="0 0 18 17.4">

        <path d="M3.8,17.4c-0.1,0-0.2,0-0.3-0.1c-0.1-0.1-0.2-0.2-0.2-0.4v-3.5C1.2,11.9,0,9.8,0,7.5C0,3.4,4,0,9,0s9,3.4,9,7.5
            c0,4.1-4,7.5-8.9,7.5L4,17.3C3.9,17.4,3.9,17.4,3.8,17.4z M9,1C4.6,1,1,3.9,1,7.5c0,2,1.1,3.9,3.1,5.1c0.1,0.1,0.2,0.2,0.2,0.4v3
            l4.5-2c0.1,0,0.1,0,0.2,0h0c4.4,0,8-2.9,8-6.5S13.4,1,9,1z"/>
    </svg>


    <svg id="review-message">
        <path class="st0" d="M34.5,69.1C15.5,69.1,0,53.6,0,34.5S15.5,0,34.5,0s34.5,15.5,34.5,34.5S53.6,69.1,34.5,69.1z M34.5,4
            C17.7,4,4,17.7,4,34.5s13.7,30.5,30.5,30.5s30.5-13.7,30.5-30.5S51.4,4,34.5,4z"/>
    </svg>


    <svg id="send" viewBox="0 0 20 16.9">
        <path d="M0,0.6v4.3c0,0.3,0.2,0.5,0.5,0.6L10.8,8c0.4,0.1,0.4,0.7,0,0.8L0.5,11.4C0.2,11.5,0,11.7,0,12v4.3c0,0.4,0.4,0.7,0.8,0.6
            L19.6,9c0.5-0.2,0.5-0.9,0-1.1L0.8,0C0.4-0.1,0,0.2,0,0.6z"/>
        <path d="M0,0.6v4.3c0,0.3,0.2,0.5,0.5,0.6L10.8,8c0.4,0.1,0.4,0.7,0,0.8L0.5,11.4C0.2,11.5,0,11.7,0,12v4.3c0,0.4,0.4,0.7,0.8,0.6
            L19.6,9c0.5-0.2,0.5-0.9,0-1.1L0.8,0C0.4-0.1,0,0.2,0,0.6z"/>
    </svg>



    <svg id="play" viewBox="0 0 11.7 15" >

        <path d="M11.5,7L1,0.1c-0.4-0.3-1,0-1,0.5v13.9c0,0.5,0.6,0.7,1,0.5L11.5,8C11.8,7.7,11.8,7.3,11.5,7z"/>

    </svg>


    <svg id="stop" viewBox="0 0 10 10" >

<path d="M9.1,10H0.9C0.4,10,0,9.6,0,9.1l0-8.1C0,0.4,0.4,0,0.9,0l8.1,0C9.6,0,10,0.4,10,0.9v8.1C10,9.6,9.6,10,9.1,10z"/>
    </svg>


    <svg id="back" viewBox="0 0 12 22"  >
        <path d="M11,22c-0.3,0-0.5-0.1-0.7-0.3l-10-10c-0.4-0.4-0.4-1,0-1.4l10-10c0.4-0.4,1-0.4,1.4,0s0.4,1,0,1.4L2.4,11l9.3,9.3
	    c0.4,0.4,0.4,1,0,1.4C11.5,21.9,11.3,22,11,22z"/>
    </svg>


    <svg id="arrow-small">
        <path class="st0" d="M34.5,69.1C15.5,69.1,0,53.6,0,34.5S15.5,0,34.5,0s34.5,15.5,34.5,34.5S53.6,69.1,34.5,69.1z M34.5,4
            C17.7,4,4,17.7,4,34.5s13.7,30.5,30.5,30.5s30.5-13.7,30.5-30.5S51.4,4,34.5,4z"/>
    </svg>


    <svg id="checkmark" viewBox="0 0 12 8.9" >
        <path d="M4.1,8.9c-0.3,0-0.5-0.1-0.7-0.3L0.3,5.5c-0.4-0.4-0.4-1,0-1.4s1-0.4,1.4,0l2.4,2.4l6.2-6.2c0.4-0.4,1-0.4,1.4,0
            s0.4,1,0,1.4L4.8,8.6C4.6,8.8,4.4,8.9,4.1,8.9z"/>
        </svg>
    </svg>


  </defs>
</svg>


